####
#
# OBJ File Generated by Meshlab
#
####
# Object 4.obj
#
# Vertices: 109
# Faces: 186
#
####
vn -0.874457 -1.202159 -2.561870
v 5.675967 7.525176 0.002642
vn 1.940825 -2.472389 -5.428641
v -5.271552 6.673936 0.548395
vn 0.448626 -1.436792 -2.580610
v -2.703631 9.025029 0.000622
vn -1.943147 -2.389211 -5.462808
v 5.105378 6.251234 0.791256
vn 2.195264 -1.591185 -5.634975
v -5.037856 3.667772 1.800552
vn 1.472527 -2.655423 -5.482025
v -3.608220 6.554021 1.139190
vn 2.979418 -0.971017 -5.437587
v -7.809752 2.470214 0.711127
vn -0.662244 -1.348643 -2.584617
v 4.174757 8.423821 0.004485
vn 1.051442 1.987840 -5.825127
v -2.301745 -4.491946 2.315370
vn 1.381071 0.658056 -2.585584
v -8.540323 -3.940593 0.007858
vn -0.763679 0.032461 -6.188429
v 1.626252 -0.112166 3.188219
vn 2.389672 1.174121 -5.661414
v -5.632992 -2.664405 1.783019
vn -0.463394 -2.410278 -5.750977
v 1.116525 5.552218 2.032716
vn 0.842528 -2.620183 -5.610835
v -2.016900 6.227420 1.656535
vn 0.629795 1.354353 -2.549854
v -3.927417 -8.515741 0.018861
vn -1.475394 -0.245263 -2.548734
v 9.293559 1.456249 0.004109
vn -2.898657 -0.346077 -5.540118
v 6.848756 0.804033 1.454816
vn -1.284779 -0.742072 -2.544469
v 8.181362 4.675597 0.005130
vn -0.687098 1.362798 -2.530102
v 4.165939 -8.430405 0.006413
vn -3.124947 -0.421977 -5.423412
v 8.398617 1.082219 0.558160
vn -0.383020 1.466731 -2.514897
v 2.550932 -9.052445 0.006587
vn -0.708209 -2.923183 -5.497398
v 1.726898 7.341301 1.092203
vn 1.365409 -1.555260 -5.893348
v -3.125821 3.349598 2.489065
vn 0.317491 1.454734 -2.527547
v -1.922605 -9.205045 0.004335
vn 0.723812 2.718854 -5.587105
v -1.624746 -6.425491 1.597262
vn 1.448883 0.371555 -2.505682
v -9.128915 -2.414835 0.001541
vn -0.277855 3.122676 -5.429701
v 0.749263 -8.035470 0.795820
vn 3.168665 0.156090 -5.404200
v -8.402472 -0.414534 0.622047
vn -1.463926 2.241027 -5.643027
v 3.468360 -5.225405 1.796866
vn -2.171048 2.253540 -5.430232
v 5.438258 -5.626854 0.945342
vn -0.954297 3.017532 -5.418233
v 2.566974 -7.972149 0.618726
vn -1.128776 -1.850725 -5.852303
v 2.619963 4.101245 2.379961
vn -2.995426 0.327203 -5.487462
v 7.634615 -0.877083 1.039732
vn 0.933944 -1.147426 -2.527938
v -5.942661 7.328314 0.003433
vn -1.213444 0.893483 -2.509851
v 7.639696 -5.461065 0.014256
vn 0.654813 -1.347819 -2.580247
v -4.102576 8.476155 0.010399
vn 1.429910 2.443278 -5.588486
v -3.249589 -5.645688 1.632692
vn -2.352401 -0.363401 -5.752066
v 5.298551 0.894061 2.223137
vn 1.627491 1.169497 -5.923145
v -3.502931 -2.487649 2.568165
vn 2.689086 -1.052252 -5.567452
v -6.267661 2.450049 1.519450
vn -1.548577 0.656045 -6.018167
v 3.313222 -1.536841 2.769479
vn 1.164187 -0.923735 -2.528511
v -7.280946 5.964585 0.009518
vn -1.374954 -2.811762 -5.439498
v 3.707131 7.503489 0.604529
vn 1.492434 -0.263847 -2.547950
v -9.281913 1.460585 0.009625
vn 2.146045 -2.109333 -5.496396
v -5.284916 5.235803 1.159465
vn 0.195015 -1.503765 -2.584625
v -1.459200 9.285056 0.010374
vn -0.516449 2.201111 -5.823825
v 1.284359 -4.966739 2.273039
vn -0.239443 -1.648429 -6.010656
v 0.527794 3.515222 2.796536
vn -0.967466 1.178101 -2.512411
v 5.903502 -7.291266 0.009152
vn 0.173544 0.472799 -6.209742
v -0.418152 -1.005507 3.250147
vn -1.961666 1.314067 -5.772793
v 4.469869 -3.135099 2.170546
vn -1.304906 -2.516386 -5.573273
v 3.180912 5.983938 1.520846
vn -1.959996 -1.928508 -5.616465
v 4.553772 4.519291 1.702468
vn -1.481033 0.365752 -2.542661
v 9.104569 -2.423793 0.000319
vn 1.135649 2.890662 -5.452612
v -2.928802 -7.576498 0.742476
vn 0.855193 -0.220449 -6.186208
v -1.969989 0.426039 3.130940
vn -2.683057 1.063223 -5.560221
v 6.445796 -2.649622 1.416908
vn -0.159030 -1.471555 -2.537253
v 0.894576 9.367895 0.004939
vn 2.147157 0.477375 -5.852296
v -4.778209 -0.899738 2.380220
vn -0.007993 1.506814 -2.521914
v -0.003984 -9.396224 0.007360
vn 0.474584 -2.119741 -5.857587
v -1.186329 4.823045 2.327207
vn -1.438068 -0.490849 -2.573962
v 8.849347 3.192278 0.002839
vn -3.021415 0.898239 -5.422605
v 8.176735 -2.383374 0.546572
vn 0.469674 3.084811 -5.441454
v -1.204265 -8.015405 0.765881
vn 1.774903 1.719948 -5.744686
v -4.005523 -3.934447 2.066162
vn -0.951879 -0.926186 -6.088106
v 2.132587 1.989491 2.970478
vn 0.656034 1.284007 -6.064350
v -1.477463 -2.726734 2.928345
vn -1.099711 -1.019749 -2.577060
v 6.829370 6.473393 0.012224
vn 0.933380 1.161209 -2.499507
v -5.936143 -7.289263 0.010530
vn 1.226282 0.891750 -2.515345
v -7.621611 -5.514696 0.004320
vn -2.486929 -1.807433 -5.464583
v 6.506759 4.734288 0.805679
vn 2.553157 -0.369065 -5.695512
v -5.825279 0.800926 1.969707
vn 2.769823 0.360072 -5.590236
v -6.666174 -0.794722 1.579349
vn 0.004220 2.772082 -5.610876
v -0.067007 -6.600009 1.606427
vn -1.400032 0.621297 -2.577449
v 8.667612 -3.636779 0.010318
vn -1.630114 -0.141555 -6.022447
v 3.694327 0.423137 2.765307
vn -1.097023 1.537752 -5.942947
v 2.512652 -3.380314 2.626299
vn 1.371548 -0.595424 -2.504768
v -8.631050 3.703147 0.011069
vn -2.901160 -1.078871 -5.451029
v 7.581046 2.856666 0.778699
vn 0.615118 -1.297852 -6.071998
v -1.423528 2.721472 2.928256
vn 1.241570 0.517934 -6.085899
v -2.705742 -1.061777 2.984817
vn 1.537128 0.002209 -2.540132
v -9.408505 -0.071714 0.013557
vn -0.411332 -1.440032 -2.588029
v 2.580849 9.036795 0.007459
vn -1.516688 0.088450 -2.560282
v 9.380968 -0.634084 0.016884
vn -2.403139 0.475349 -5.749823
v 5.518612 -1.007278 2.077245
vn 0.737087 -3.032928 -5.439165
v -1.953337 7.940000 0.735162
vn 2.061411 -0.937261 -5.821522
v -4.580642 2.029322 2.342323
vn 2.689504 -1.544092 -5.450771
v -6.855742 3.951686 0.876841
vn -0.184126 1.472116 -6.073694
v 0.489003 -3.104796 2.890393
vn -2.553947 -1.214056 -5.581216
v 5.944675 2.733763 1.640218
vn 2.336526 2.136939 -5.408982
v -6.222775 -5.609360 0.625624
vn -0.107712 -3.167823 -5.408670
v 0.319608 8.458432 0.568447
vn 1.716202 2.578922 -5.454559
v -4.589530 -6.722248 0.739911
vn 0.091488 -2.843536 -5.565697
v -0.333276 6.913399 1.455977
vn 2.658641 1.536422 -5.471041
v -6.964000 -3.982161 0.817228
vn 1.232820 -0.792348 -6.077657
v -2.767401 1.686702 2.889317
vn 0.034407 -0.613706 -6.193735
v -0.114732 1.302129 3.234289
vn -0.806834 2.761641 -5.555671
v 2.030527 -6.682274 1.421743
vn -1.549919 2.713104 -5.434917
v 3.921295 -7.016898 0.824032
vn 2.113860 1.982192 -5.545821
v -5.162532 -4.809700 1.370374
vn -1.811156 -1.176284 -5.852672
v 4.130578 2.532006 2.406427
vn 1.470483 -2.132355 -5.689243
v -3.431696 4.952871 1.897629
vn -0.685636 0.850046 -6.147076
v 1.528117 -1.839569 3.069112
vn 0.290929 2.120504 -5.874085
v -0.830145 -4.747319 2.385778
vn 1.786782 -0.194160 -5.981610
v -3.919985 0.479438 2.707380
vn 2.922464 0.932410 -5.466357
v -7.598535 -2.305341 0.886041
vn -2.703983 1.586123 -5.431479
v 6.935586 -4.039169 0.825318
vn 2.985424 -0.472848 -5.492364
v -7.419064 1.027433 1.131293
vn -2.273860 1.784625 -5.548134
v 5.320428 -4.171077 1.548564
# 109 vertices, 0 vertices normals

f 15//15 55//55 24//24
f 49//49 19//19 99//99
f 37//37 25//25 55//55
f 92//92 86//86 46//46
f 52//52 43//43 4//4
f 63//63 107//107 57//57
f 71//71 53//53 4//4
f 30//30 35//35 49//49
f 89//89 77//77 47//47
f 84//84 63//63 33//33
f 39//39 9//9 65//65
f 15//15 69//69 93//93
f 86//86 36//36 3//3
f 20//20 33//33 17//17
f 3//3 46//46 86//86
f 16//16 84//84 20//20
f 47//47 77//77 29//29
f 42//42 34//34 2//2
f 30//30 107//107 35//35
f 54//54 75//75 63//63
f 40//40 87//87 72//72
f 50//50 56//56 97//97
f 94//94 22//22 13//13
f 28//28 73//73 106//106
f 31//31 19//19 21//21
f 47//47 74//74 104//104
f 26//26 28//28 106//106
f 26//26 82//82 28//28
f 15//15 93//93 55//55
f 22//22 83//83 43//43
f 77//77 51//51 29//29
f 1//1 4//4 43//43
f 74//74 98//98 27//27
f 71//71 18//18 79//79
f 89//89 103//103 77//77
f 102//102 45//45 6//6
f 5//5 40//40 88//88
f 104//104 74//74 25//25
f 70//70 10//10 95//95
f 70//70 91//91 69//69
f 58//58 83//83 92//92
f 14//14 6//6 86//86
f 94//94 14//14 86//86
f 44//44 28//28 82//82
f 73//73 72//72 59//59
f 90//90 17//17 38//38
f 45//45 88//88 42//42
f 44//44 7//7 108//108
f 90//90 71//71 79//79
f 92//92 46//46 58//58
f 72//72 73//73 108//108
f 8//8 43//43 83//83
f 6//6 45//45 2//2
f 87//87 40//40 5//5
f 20//20 17//17 79//79
f 95//95 91//91 70//70
f 12//12 95//95 106//106
f 38//38 101//101 90//90
f 27//27 31//31 21//21
f 43//43 52//52 22//22
f 9//9 37//37 65//65
f 57//57 33//33 63//63
f 57//57 51//51 85//85
f 47//47 98//98 74//74
f 60//60 27//27 21//21
f 53//53 71//71 90//90
f 93//93 100//100 37//37
f 52//52 53//53 32//32
f 5//5 23//23 87//87
f 44//44 108//108 28//28
f 44//44 78//78 7//7
f 96//96 56//56 105//105
f 55//55 64//64 24//24
f 107//107 63//63 75//75
f 49//49 99//99 30//30
f 102//102 61//61 23//23
f 92//92 94//94 86//86
f 89//89 104//104 67//67
f 50//50 89//89 67//67
f 45//45 5//5 88//88
f 39//39 81//81 67//67
f 20//20 62//62 16//16
f 12//12 39//39 65//65
f 83//83 22//22 92//92
f 25//25 64//64 55//55
f 61//61 14//14 94//94
f 88//88 40//40 7//7
f 33//33 57//57 85//85
f 97//97 80//80 48//48
f 73//73 28//28 108//108
f 71//71 4//4 68//68
f 62//62 20//20 79//79
f 27//27 60//60 64//64
f 102//102 14//14 61//61
f 102//102 6//6 14//14
f 12//12 65//65 100//100
f 53//53 101//101 32//32
f 48//48 80//80 61//61
f 86//86 6//6 36//36
f 81//81 50//50 67//67
f 68//68 18//18 71//71
f 10//10 26//26 106//106
f 52//52 32//32 13//13
f 67//67 104//104 9//9
f 62//62 79//79 18//18
f 80//80 56//56 96//96
f 69//69 91//91 93//93
f 13//13 48//48 61//61
f 31//31 98//98 99//99
f 66//66 76//76 11//11
f 38//38 85//85 76//76
f 54//54 63//63 84//84
f 11//11 76//76 41//41
f 35//35 107//107 75//75
f 33//33 85//85 17//17
f 38//38 17//17 85//85
f 33//33 20//20 84//84
f 72//72 105//105 59//59
f 96//96 87//87 23//23
f 76//76 101//101 38//38
f 13//13 22//22 52//52
f 81//81 39//39 59//59
f 61//61 94//94 13//13
f 24//24 64//64 60//60
f 5//5 102//102 23//23
f 66//66 11//11 97//97
f 105//105 56//56 81//81
f 37//37 55//55 93//93
f 36//36 6//6 2//2
f 52//52 4//4 53//53
f 32//32 48//48 13//13
f 96//96 105//105 87//87
f 90//90 101//101 53//53
f 97//97 48//48 66//66
f 85//85 41//41 76//76
f 34//34 36//36 2//2
f 47//47 29//29 98//98
f 81//81 56//56 50//50
f 59//59 12//12 73//73
f 51//51 109//109 29//29
f 97//97 56//56 80//80
f 65//65 37//37 100//100
f 101//101 76//76 66//66
f 39//39 12//12 59//59
f 1//1 68//68 4//4
f 23//23 80//80 96//96
f 92//92 22//22 94//94
f 90//90 79//79 17//17
f 10//10 106//106 95//95
f 91//91 95//95 100//100
f 91//91 100//100 93//93
f 42//42 88//88 78//78
f 39//39 67//67 9//9
f 80//80 23//23 61//61
f 31//31 99//99 19//19
f 59//59 105//105 81//81
f 2//2 45//45 42//42
f 89//89 50//50 103//103
f 12//12 100//100 95//95
f 29//29 99//99 98//98
f 99//99 29//29 30//30
f 97//97 11//11 50//50
f 31//31 27//27 98//98
f 48//48 32//32 66//66
f 43//43 8//8 1//1
f 102//102 5//5 45//45
f 103//103 41//41 77//77
f 47//47 104//104 89//89
f 7//7 78//78 88//88
f 101//101 66//66 32//32
f 41//41 103//103 11//11
f 103//103 50//50 11//11
f 87//87 105//105 72//72
f 12//12 106//106 73//73
f 107//107 109//109 57//57
f 51//51 77//77 41//41
f 85//85 51//51 41//41
f 72//72 108//108 40//40
f 109//109 30//30 29//29
f 108//108 7//7 40//40
f 30//30 109//109 107//107
f 109//109 51//51 57//57
f 74//74 27//27 64//64
f 74//74 64//64 25//25
f 9//9 104//104 25//25
f 9//9 25//25 37//37
# 186 faces, 0 coords texture

# End of File
