####
#
# OBJ File Generated by Meshlab
#
####
# Object 0.obj
#
# Vertices: 15
# Faces: 18
#
####
vn -0.356674 -0.081522 -6.257843
v 1.381485 0.273349 0.154575
vn 0.454752 -0.136365 -6.253666
v -1.738254 0.432813 0.120997
vn -0.204685 0.083164 -2.406603
v 2.759489 -1.173916 0.003492
vn -0.199842 0.379861 -6.257438
v 0.766951 -1.395645 0.138601
vn 0.175858 0.125071 -2.627794
v -2.482455 -1.698234 0.003285
vn 0.209273 0.037715 -2.476780
v -2.972402 -0.623372 0.000636
vn -0.128806 -0.177399 -2.647387
v 1.730529 2.462699 0.001907
vn -0.036676 -0.219055 -2.563009
v 0.613811 2.945982 0.000953
vn 0.171856 0.156575 -6.262605
v -0.624192 -0.621891 0.182918
vn 0.094382 -0.192637 -2.650499
v -1.303208 2.633253 0.006314
vn -0.102094 0.203410 -2.364209
v 1.421680 -2.664799 0.001133
vn 0.061675 0.198271 -2.426212
v -0.947574 -2.833916 0.006597
vn -0.215372 -0.085222 -2.451913
v 2.770041 1.166592 0.001560
vn 0.174727 -0.129044 -2.437559
v -2.406003 1.802470 0.000623
vn 0.006148 -0.368239 -6.263424
v 0.056886 1.450186 0.136765
# 15 vertices, 0 vertices normals

f 5//5 6//6 2//2
f 7//7 13//13 1//1
f 1//1 4//4 9//9
f 4//4 1//1 3//3
f 9//9 4//4 12//12
f 8//8 15//15 10//10
f 9//9 2//2 15//15
f 1//1 9//9 15//15
f 13//13 3//3 1//1
f 11//11 12//12 4//4
f 9//9 12//12 5//5
f 3//3 11//11 4//4
f 14//14 2//2 6//6
f 10//10 2//2 14//14
f 8//8 7//7 15//15
f 2//2 10//10 15//15
f 1//1 15//15 7//7
f 2//2 9//9 5//5
# 18 faces, 0 coords texture

# End of File
