####
#
# OBJ File Generated by Meshlab
#
####
# Object 2.obj
#
# Vertices: 65
# Faces: 105
#
####
vn 0.181248 -1.039635 -2.731217
v -1.205701 6.803823 0.003324
vn 1.856695 -0.954585 -5.911051
v -4.809815 2.503068 0.585325
vn 0.895533 -1.853765 -5.919079
v -2.395035 4.866519 0.579526
vn 0.826013 0.664891 -2.725767
v -5.469674 -4.115739 0.017003
vn 1.564938 -0.418590 -6.033672
v -3.660260 0.995121 1.124219
vn 2.139263 0.441857 -5.877481
v -5.791634 -1.184441 0.393035
vn 0.974325 -0.350707 -2.681554
v -6.522193 2.341008 0.003562
vn -2.127171 0.393819 -5.887751
v 5.699770 -1.138108 0.436615
vn -0.854118 -0.610190 -2.703245
v 5.533978 4.125055 0.008531
vn -0.459172 2.017075 -5.916632
v 1.273206 -5.411263 0.517284
vn -0.125210 1.014637 -2.704114
v 0.712997 -6.877371 0.002071
vn 0.405534 -2.157294 -5.880462
v -1.058273 5.942150 0.341103
vn 1.537547 -1.521003 -5.884170
v -4.158727 4.051246 0.447691
vn -0.683558 0.753095 -2.647131
v 4.614633 -5.164532 0.006843
vn 1.814219 1.118416 -5.895826
v -4.815946 -2.922916 0.491113
vn 0.880328 -0.608731 -2.710219
v -5.658101 3.959939 0.010590
vn 0.141830 -1.942172 -5.953783
v -0.296582 4.933507 0.748428
vn 1.051725 0.199296 -2.713979
v -6.746951 -1.388842 0.007819
vn 0.553509 0.841980 -2.672817
v -3.718687 -5.809460 0.001058
vn -0.417818 0.961907 -2.684940
v 2.857602 -6.260523 0.013784
vn -1.275088 -1.410374 -5.964359
v 3.184842 3.424233 0.841890
vn -1.676292 -0.678388 -5.995202
v 3.951836 1.654628 0.960776
vn 0.794350 -0.595232 -6.159582
v -1.833917 1.293641 1.463341
vn 0.234078 2.092376 -5.905494
v -0.617239 -5.811880 0.414566
vn -0.974913 -0.309737 -2.678229
v 6.562685 2.116446 0.012760
vn 1.140312 0.345199 -6.126150
v -2.569295 -0.719057 1.385907
vn 0.795374 1.785149 -5.950939
v -2.048539 -4.490441 0.736833
vn -1.388768 1.363704 -5.953544
v 3.617211 -3.489672 0.717210
vn -1.028524 0.944363 -6.098688
v 2.491613 -2.125866 1.215300
vn 1.382678 1.706079 -5.873669
v -3.605907 -4.608829 0.402631
vn -0.978634 -0.639309 -6.118154
v 2.240998 1.474029 1.396348
vn 1.047623 -0.084618 -2.693656
v -6.867123 0.724217 0.011175
vn 0.053329 1.716923 -6.022248
v -0.202801 -4.128241 0.977344
vn 0.100401 1.028716 -2.707230
v -0.579116 -6.899197 0.002812
vn -0.875586 0.548909 -2.681202
v 5.976722 -3.518813 0.008882
vn -0.997260 0.276117 -2.678185
v 6.673199 -1.903046 0.005064
vn -0.656668 -0.780205 -2.649001
v 4.605451 5.162027 0.001784
vn -1.080470 1.839688 -5.896187
v 3.012557 -4.947481 0.439720
vn 1.230681 -1.245584 -6.007508
v -3.026793 2.971277 0.980832
vn 0.630973 1.149955 -6.101807
v -1.543375 -2.521334 1.314474
vn 0.370802 0.948541 -2.741560
v -2.508508 -6.426776 0.008369
vn 0.635897 -0.810988 -2.651444
v -4.354818 5.401994 0.003596
vn -0.386280 -1.003933 -2.631060
v 2.359104 6.458787 0.017754
vn -1.012526 -0.039946 -2.667565
v 6.923287 0.151032 0.004090
vn -1.769014 -1.228473 -5.889749
v 4.583081 3.282655 0.498560
vn -0.700615 1.573852 -6.024408
v 1.832557 -3.881421 0.927894
vn -0.039416 -1.055422 -2.694011
v 0.241572 6.892649 0.009638
vn 1.788210 0.449460 -5.982797
v -4.279442 -1.005409 0.925346
vn 0.256771 0.280413 -6.221631
v -0.663918 -0.546706 1.617952
vn 0.941562 0.415864 -2.691588
v -6.326685 -2.767216 0.000485
vn -0.618432 0.291798 -6.205524
v 1.366882 -0.528157 1.547543
vn -1.701925 0.643169 -5.986354
v 4.267788 -1.562416 0.887945
vn 0.401790 -0.963610 -2.725178
v -2.670389 6.375007 0.010267
vn -2.056692 -0.727648 -5.879439
v 5.457298 1.977751 0.431177
vn -1.976724 -0.123102 -5.946300
v 4.919908 0.248707 0.747251
vn -0.242236 1.106869 -6.144007
v 0.455735 -2.405308 1.391493
vn -1.884205 1.072841 -5.882861
v 5.224145 -2.872336 0.386997
vn 0.450960 -1.416844 -6.069851
v -1.085868 3.272977 1.196701
vn 2.080262 -0.232191 -5.904188
v -5.372837 0.686254 0.591206
vn -1.405416 0.125118 -6.091076
v 3.274158 -0.217619 1.234424
vn -0.085026 -0.639918 -6.200909
v 0.196539 1.405327 1.572310
vn -0.986992 -1.933115 -5.881733
v 2.402540 5.216102 0.461870
vn 1.369954 1.178423 -5.988853
v -3.255290 -2.760594 0.964811
vn -0.470009 -1.459644 -6.055262
v 1.144288 3.391800 1.170240
vn -0.428232 -2.110316 -5.885490
v 1.179930 5.585766 0.483751
# 65 vertices, 0 vertices normals

f 1//1 47//47 12//12
f 34//34 24//24 11//11
f 60//60 31//31 22//22
f 57//57 8//8 36//36
f 11//11 10//10 20//20
f 34//34 41//41 24//24
f 36//36 35//35 57//57
f 19//19 30//30 41//41
f 38//38 20//20 10//10
f 49//49 61//61 51//51
f 38//38 46//46 28//28
f 16//16 13//13 2//2
f 48//48 63//63 15//15
f 9//9 25//25 54//54
f 23//23 49//49 26//26
f 38//38 28//28 14//14
f 39//39 23//23 5//5
f 42//42 53//53 3//3
f 4//4 50//50 15//15
f 32//32 7//7 59//59
f 59//59 7//7 2//2
f 18//18 32//32 6//6
f 21//21 37//37 45//45
f 27//27 40//40 33//33
f 20//20 38//38 14//14
f 23//23 26//26 5//5
f 46//46 38//38 10//10
f 47//47 17//17 12//12
f 13//13 42//42 3//3
f 31//31 21//21 22//22
f 16//16 2//2 7//7
f 39//39 5//5 2//2
f 54//54 25//25 44//44
f 31//31 60//60 51//51
f 29//29 51//51 60//60
f 5//5 48//48 59//59
f 9//9 54//54 45//45
f 47//47 43//43 65//65
f 37//37 62//62 43//43
f 10//10 24//24 33//33
f 35//35 14//14 57//57
f 58//58 39//39 3//3
f 31//31 61//61 64//64
f 51//51 29//29 56//56
f 55//55 52//52 60//60
f 12//12 17//17 3//3
f 56//56 49//49 51//51
f 45//45 22//22 21//21
f 6//6 32//32 59//59
f 15//15 50//50 6//6
f 6//6 50//50 18//18
f 55//55 22//22 54//54
f 58//58 23//23 39//39
f 1//1 12//12 53//53
f 2//2 13//13 39//39
f 45//45 37//37 9//9
f 8//8 44//44 36//36
f 37//37 21//21 62//62
f 40//40 49//49 56//56
f 24//24 41//41 27//27
f 48//48 15//15 6//6
f 49//49 40//40 26//26
f 46//46 33//33 56//56
f 29//29 28//28 46//46
f 48//48 5//5 26//26
f 57//57 52//52 8//8
f 52//52 57//57 28//28
f 46//46 10//10 33//33
f 11//11 24//24 10//10
f 22//22 45//45 54//54
f 58//58 17//17 64//64
f 16//16 42//42 13//13
f 54//54 44//44 55//55
f 13//13 3//3 39//39
f 61//61 31//31 51//51
f 41//41 30//30 27//27
f 55//55 8//8 52//52
f 46//46 56//56 29//29
f 57//57 14//14 28//28
f 30//30 63//63 27//27
f 63//63 40//40 27//27
f 33//33 24//24 27//27
f 4//4 30//30 19//19
f 59//59 48//48 6//6
f 5//5 59//59 2//2
f 40//40 56//56 33//33
f 29//29 60//60 52//52
f 28//28 29//29 52//52
f 3//3 53//53 12//12
f 58//58 64//64 61//61
f 61//61 23//23 58//58
f 55//55 60//60 22//22
f 61//61 49//49 23//23
f 44//44 8//8 55//55
f 62//62 64//64 65//65
f 40//40 63//63 26//26
f 31//31 64//64 21//21
f 21//21 64//64 62//62
f 63//63 48//48 26//26
f 15//15 63//63 30//30
f 15//15 30//30 4//4
f 17//17 58//58 3//3
f 65//65 43//43 62//62
f 65//65 64//64 17//17
f 17//17 47//47 65//65
# 105 faces, 0 coords texture

# End of File
