####
#
# OBJ File Generated by Meshlab
#
####
# Object 3.obj
#
# Vertices: 84
# Faces: 139
#
####
vn -0.216698 -2.395179 -5.773284
v 0.551031 5.797105 1.167072
vn 0.516695 1.215073 -2.679491
v -3.083055 -7.629770 0.012058
vn -0.993933 -0.809741 -2.562027
v 6.482820 5.111388 0.006517
vn -1.325212 -0.226593 -2.639024
v 8.119872 1.235393 0.022994
vn 1.116819 0.656523 -2.658953
v -7.086045 -4.168946 0.007497
vn -1.030248 0.768382 -2.572223
v 6.645695 -4.918805 0.002365
vn -0.081176 -0.252070 -6.201444
v 0.080512 0.582391 2.486688
vn -0.080672 1.279975 -2.649621
v 0.554670 -8.205514 0.016022
vn 1.090430 -0.758906 -2.566052
v -6.735951 4.690223 0.019006
vn 1.379324 1.670403 -5.866880
v -3.141979 -3.813266 1.500781
vn -1.813161 1.827191 -5.711748
v 4.811781 -4.692127 0.760052
vn 1.035354 -0.508611 -6.134703
v -2.068748 0.949495 2.261191
vn 0.471017 -1.955600 -5.913478
v -1.082067 4.396479 1.669242
vn 0.853036 -0.998117 -2.629403
v -5.058369 6.509346 0.003177
vn -2.716099 -0.110306 -5.650431
v 7.321573 0.287232 0.476272
vn -2.641038 0.642357 -5.650775
v 6.951137 -1.686759 0.557101
vn 1.953148 -0.545960 -5.898491
v -4.426276 1.201167 1.654142
vn -0.813119 1.010144 -2.629637
v 5.247360 -6.341073 0.019570
vn 0.202125 2.608244 -5.696634
v -0.569892 -6.703295 0.740744
vn 2.485699 -1.075707 -5.649044
v -6.566912 2.932251 0.529669
vn 0.934619 0.856954 -2.652354
v -6.114110 -5.499712 0.004830
vn -1.279849 0.117394 -2.570464
v 8.228146 -0.660314 0.012371
vn 2.153576 0.531106 -5.845450
v -5.021756 -1.185900 1.434851
vn 1.238189 -0.398807 -2.609015
v -7.875655 2.400310 0.003701
vn -1.987506 -0.369869 -5.916606
v 4.460380 0.835541 1.656663
vn 0.245460 1.237818 -2.606334
v -1.742055 -8.074055 0.001272
vn -2.315620 -1.361667 -5.666189
v 6.131976 3.674832 0.551863
vn -1.810102 -1.873971 -5.698112
v 4.700737 4.701484 0.787530
vn 1.222383 -1.267607 -5.989713
v -2.705337 2.835363 1.864721
vn 0.312854 -1.210668 -6.113775
v -0.621090 2.492895 2.206127
vn 0.735507 1.049858 -2.638958
v -4.650579 -6.785407 0.007465
vn -0.573034 2.496121 -5.718450
v 1.468521 -6.442268 0.797387
vn -0.161811 -1.310867 -2.605644
v 0.785426 8.203524 0.005500
vn 0.392588 -1.244571 -2.648837
v -2.397137 7.873970 0.005847
vn -1.699275 1.277942 -5.882240
v 4.046708 -2.857545 1.505663
vn 0.631294 0.386417 -6.185350
v -1.358027 -0.627792 2.392764
vn -1.287394 -1.621236 -5.901038
v 2.909221 3.584831 1.630722
vn -2.004869 -1.162801 -5.810383
v 4.688675 2.764836 1.320873
vn -0.523235 1.162757 -2.636860
v 3.196818 -7.618286 0.000990
vn 1.003467 2.468093 -5.675696
v -2.624363 -6.580931 0.576128
vn 1.242460 0.399029 -2.621983
v -7.930108 -2.316210 0.002290
vn -0.199819 0.829822 -6.181033
v 0.295630 -1.599058 2.336302
vn 2.508608 0.826497 -5.682189
v -6.704859 -2.030808 0.626325
vn 1.530323 0.342676 -6.035269
v -3.227270 -0.740266 2.045152
vn -0.322544 1.248941 -2.697797
v 2.351876 -7.907464 0.005658
vn -0.447972 1.512111 -6.053404
v 0.939817 -3.326795 1.959768
vn 1.289064 -0.129840 -2.655497
v -8.195066 0.942255 0.004045
vn -1.059248 1.889930 -5.859122
v 2.499691 -4.398119 1.463540
vn -1.207558 0.472066 -2.605312
v 7.671517 -3.006975 0.021561
vn -0.485002 -1.191627 -2.610971
v 2.915935 7.680510 0.004335
vn 2.094755 1.433484 -5.726739
v -5.305289 -3.507779 0.905421
vn 1.563412 2.059465 -5.709540
v -3.867263 -5.327347 0.800148
vn -2.247726 0.889780 -5.780859
v 5.436554 -2.148753 1.152073
vn -0.720263 -1.065422 -2.627572
v 4.654336 6.752657 0.017884
vn -1.806188 0.463154 -5.966402
v 4.157079 -1.052423 1.741105
vn -1.115986 -2.213703 -5.747140
v 2.691518 5.365283 1.079609
vn -0.677690 -1.047686 -6.112290
v 1.438610 2.178159 2.204079
vn -1.181755 -0.507266 -2.584518
v 7.567467 3.291721 0.003497
vn 0.135002 -1.318670 -2.662183
v -0.674095 8.200622 0.006408
vn 1.149360 -2.070546 -5.788976
v -2.800085 4.949853 1.229560
vn -0.832679 -2.611254 -5.638855
v 2.115543 6.928786 0.496093
vn -2.413746 0.128141 -5.772462
v 5.915257 -0.397316 1.126319
vn 0.609713 -1.151113 -2.645588
v -4.130503 7.150809 0.001244
vn -1.446681 -0.880802 -6.019067
v 3.102503 1.963519 1.932266
vn 0.936577 1.107247 -6.075690
v -2.073585 -2.222520 2.087621
vn 1.289326 0.126307 -2.654242
v -8.217342 -0.880098 0.010249
vn 1.774715 1.143958 -5.895667
v -4.016077 -2.515177 1.567912
vn -1.074909 0.994153 -6.070936
v 2.449026 -2.162399 2.021265
vn 0.655693 -2.543347 -5.689157
v -1.716213 6.613932 0.698804
vn -0.174214 2.156275 -5.866727
v 0.316277 -4.987415 1.482796
vn -0.076457 -2.693309 -5.658561
v 0.252248 7.218750 0.521875
vn 2.694588 -0.466115 -5.647828
v -7.445320 1.108798 0.359853
vn 2.159411 -1.694601 -5.635584
v -5.808842 4.368668 0.493920
vn 0.392688 1.577183 -6.029407
v -0.895123 -3.537461 1.926802
vn -0.421021 -1.827080 -5.958816
v 0.913343 4.054907 1.789507
vn -0.773773 2.576485 -5.672250
v 2.285855 -7.329617 0.281065
vn -2.307645 1.330658 -5.675443
v 6.080490 -3.500625 0.623449
vn -1.296530 2.314123 -5.681736
v 3.479293 -6.170214 0.572779
vn -1.091547 0.011642 -6.127079
v 2.319061 0.141665 2.260166
vn 2.533578 -0.109765 -5.711156
v -6.457796 0.158426 0.906389
vn 1.856880 -1.473805 -5.782210
v -4.409191 3.598161 1.230776
vn 0.729905 2.184414 -5.807591
v -1.707841 -5.208866 1.310973
vn -2.521275 -0.684119 -5.697066
v 6.671976 1.710538 0.678783
vn 1.486960 -2.217746 -5.664983
v -3.859555 5.794294 0.652218
# 84 vertices, 0 vertices normals

f 5//5 41//41 43//43
f 21//21 52//52 31//31
f 63//63 84//84 14//14
f 44//44 67//67 23//23
f 15//15 4//4 22//22
f 11//11 6//6 18//18
f 31//31 52//52 40//40
f 76//76 78//78 39//39
f 30//30 12//12 29//29
f 35//35 48//48 68//68
f 73//73 14//14 84//84
f 32//32 8//8 19//19
f 53//53 55//55 62//62
f 17//17 23//23 80//80
f 38//38 28//28 27//27
f 8//8 26//26 19//19
f 10//10 52//52 51//51
f 83//83 15//15 62//62
f 45//45 76//76 39//39
f 54//54 3//3 28//28
f 30//30 29//29 13//13
f 15//15 22//22 16//16
f 51//51 23//23 67//67
f 1//1 13//13 69//69
f 33//33 50//50 61//61
f 69//69 59//59 71//71
f 1//1 69//69 71//71
f 60//60 13//13 29//29
f 12//12 30//30 7//7
f 12//12 44//44 17//17
f 67//67 44//44 65//65
f 21//21 5//5 51//51
f 25//25 83//83 62//62
f 1//1 75//75 13//13
f 16//16 53//53 62//62
f 51//51 5//5 43//43
f 58//58 83//83 27//27
f 53//53 16//16 77//77
f 37//37 64//64 57//57
f 54//54 61//61 50//50
f 55//55 53//53 35//35
f 51//51 52//52 21//21
f 18//18 78//78 11//11
f 16//16 62//62 15//15
f 56//56 37//37 75//75
f 59//59 33//33 71//71
f 24//24 20//20 72//72
f 46//46 70//70 74//74
f 34//34 69//69 63//63
f 65//65 36//36 42//42
f 17//17 81//81 29//29
f 46//46 68//68 48//48
f 7//7 42//42 36//36
f 20//20 73//73 81//81
f 43//43 66//66 80//80
f 24//24 72//72 47//47
f 41//41 66//66 43//43
f 8//8 32//32 76//76
f 71//71 61//61 1//1
f 24//24 9//9 20//20
f 43//43 23//23 51//51
f 65//65 10//10 67//67
f 72//72 20//20 80//80
f 28//28 38//38 37//37
f 10//10 65//65 74//74
f 68//68 79//79 55//55
f 61//61 56//56 1//1
f 30//30 13//13 75//75
f 66//66 47//47 72//72
f 38//38 25//25 64//64
f 58//58 4//4 83//83
f 12//12 7//7 36//36
f 54//54 28//28 56//56
f 64//64 25//25 79//79
f 61//61 54//54 56//56
f 37//37 57//57 75//75
f 25//25 62//62 55//55
f 69//69 34//34 59//59
f 17//17 44//44 23//23
f 6//6 77//77 49//49
f 12//12 36//36 44//44
f 53//53 77//77 35//35
f 48//48 11//11 78//78
f 49//49 16//16 22//22
f 57//57 79//79 7//7
f 48//48 35//35 11//11
f 37//37 38//38 64//64
f 57//57 7//7 30//30
f 17//17 80//80 20//20
f 32//32 48//48 78//78
f 40//40 82//82 19//19
f 48//48 32//32 70//70
f 32//32 78//78 76//76
f 81//81 73//73 84//84
f 55//55 35//35 68//68
f 40//40 52//52 82//82
f 8//8 76//76 45//45
f 70//70 32//32 19//19
f 77//77 16//16 49//49
f 77//77 6//6 11//11
f 55//55 79//79 25//25
f 35//35 77//77 11//11
f 79//79 57//57 64//64
f 33//33 61//61 71//71
f 13//13 60//60 69//69
f 74//74 42//42 46//46
f 9//9 14//14 73//73
f 84//84 60//60 81//81
f 44//44 36//36 65//65
f 43//43 80//80 23//23
f 37//37 56//56 28//28
f 68//68 46//46 42//42
f 75//75 1//1 56//56
f 74//74 65//65 42//42
f 42//42 79//79 68//68
f 30//30 75//75 57//57
f 7//7 79//79 42//42
f 48//48 70//70 46//46
f 78//78 18//18 39//39
f 40//40 26//26 2//2
f 40//40 19//19 26//26
f 17//17 29//29 12//12
f 80//80 66//66 72//72
f 81//81 60//60 29//29
f 28//28 3//3 27//27
f 82//82 10//10 74//74
f 58//58 27//27 3//3
f 70//70 82//82 74//74
f 60//60 84//84 69//69
f 82//82 70//70 19//19
f 82//82 52//52 10//10
f 83//83 38//38 27//27
f 40//40 2//2 31//31
f 67//67 10//10 51//51
f 83//83 25//25 38//38
f 83//83 4//4 15//15
f 20//20 81//81 17//17
f 20//20 9//9 73//73
f 84//84 63//63 69//69
# 139 faces, 0 coords texture

# End of File
